<?xml version="1.0" encoding="utf-8"?>
<!-- Generator: Adobe Illustrator 19.0.0, SVG Export Plug-In . SVG Version: 6.00 Build 0)  -->
<svg version="1.1" id="Vector_Icons" xmlns="http://www.w3.org/2000/svg" xmlns:xlink="http://www.w3.org/1999/xlink" x="0px"
	 y="0px" viewBox="0 0 64 64" style="enable-background:new 0 0 64 64;" xml:space="preserve">
<style type="text/css">
	.st0{stroke:#000000;stroke-width:3;stroke-miterlimit:10;}
	.st1{fill:#2EB454;stroke:#2EB454;stroke-width:3;stroke-miterlimit:10;}
	.st2{fill:#2EB454;stroke:#2CB34A;stroke-width:3;stroke-miterlimit:10;}
	.st3{fill:none;stroke:#FFFFFF;stroke-width:3;stroke-miterlimit:10;}
	.st4{stroke:#FFFFFF;stroke-width:3;stroke-miterlimit:10;}
	.st5{fill:#FFFFFF;stroke:#FFFFFF;stroke-width:5;stroke-miterlimit:10;}
	.st6{fill:#FFFFFF;stroke:#000000;stroke-width:3;stroke-miterlimit:10;}
	.st7{fill:#2EB454;}
	.st8{stroke:#000000;stroke-miterlimit:10;}
	.st9{fill:none;stroke:#FFFFFF;stroke-width:8;stroke-miterlimit:10;}
	.st10{fill:#FFFFFF;stroke:#FFFFFF;stroke-width:8;stroke-miterlimit:10;}
	.st11{fill:#FFFFFF;stroke:#FFFFFF;stroke-width:3;stroke-miterlimit:10;}
	.st12{fill:none;}
	.st13{fill:none;stroke:#000000;stroke-miterlimit:10;}
	.st14{opacity:0.3;fill:url(#dots);}
	.st15{fill:#FFFFFF;stroke:#000000;stroke-miterlimit:10;}
	.st16{fill:none;stroke:#000000;stroke-width:3;stroke-miterlimit:10;}
	.st17{fill:none;stroke:#2EB454;stroke-width:3;stroke-miterlimit:10;}
	.st18{stroke:#2EB454;stroke-width:3;stroke-miterlimit:10;}
</style>
<symbol  id="Back" viewBox="-55.4 -55.4 110.9 110.9">
	<path class="st0" d="M53.9,0c0-29.8-24.2-53.9-53.9-53.9S-53.9-29.8-53.9,0S-29.8,53.9,0,53.9S53.9,29.8,53.9,0z"/>
	<path class="st1" d="M-27.2,22.3v-44.3c0-2.6,2.1-4.7,4.7-4.7h0c2.6,0,4.7,2.1,4.7,4.7V0.1v22.2c0,2.6-2.1,4.7-4.7,4.7h0
		C-25.1,26.9-27.2,24.8-27.2,22.3z"/>
	<path class="st2" d="M27.5-20.4v45.2c0,2.6-2.7,4.1-4.8,2.8L-14.5,3.1c-1.9-1.3-1.9-4.2,0-5.5l37.2-24.5c2.1-1.4,4.8,0.2,4.8,2.8
		V-20.4z"/>
</symbol>
<symbol  id="Closed_Eye" viewBox="-53.9 -53.9 107.9 107.9">
	<path d="M53.9,0c0-29.8-24.2-53.9-53.9-53.9S-53.9-29.8-53.9,0S-29.8,53.9,0,53.9S53.9,29.8,53.9,0z"/>
	<path class="st3" d="M36.4,0.6c0.1-0.5,0.1-0.9,0.1-1.4c-0.1-9.3-19.4-18-35.7-18c-16.7,0-36.3,9.1-36.3,18.5c0,0.3,0,0.7,0.1,1"/>
	<line class="st4" x1="36.5" y1="-18.8" x2="30.6" y2="-9.7"/>
	<line class="st4" x1="19" y1="-27.3" x2="16" y2="-16.6"/>
	<line class="st4" x1="0.9" y1="-31" x2="0.8" y2="-18.8"/>
	<line class="st4" x1="-30.5" y1="-9.7" x2="-36.5" y2="-18.8"/>
	<line class="st4" x1="-16.2" y1="-16.6" x2="-18.5" y2="-27.3"/>
</symbol>
<symbol  id="Deleted_Symbol" viewBox="-55.4 -55.4 110.9 110.9">
	<g id="New_Symbol_2_">
		<path class="st0" d="M53.9,0c0-29.8-24.2-53.9-53.9-53.9S-53.9-29.8-53.9,0S-29.8,53.9,0,53.9S53.9,29.8,53.9,0z"/>
	</g>
	<g>
		<path class="st3" d="M-35.7,0c0.1,9.3,19.4,18,35.8,18c16.7,0,36.3-9.1,36.3-18.5c0-9.4-19.4-18.3-36-18.3
			C-16.4-18.7-35.8-9.4-35.7,0z"/>
		<path class="st5" d="M7.8,0c0-4.3-3.5-7.9-7.9-7.9S-7.9-4.3-7.9,0s3.5,7.9,7.9,7.9S7.8,4.3,7.8,0z"/>
		<line class="st4" x1="-35.7" y1="18" x2="-29.8" y2="8.9"/>
		<line class="st4" x1="-18.2" y1="26.5" x2="-15.2" y2="15.7"/>
		<line class="st4" x1="-0.1" y1="30.2" x2="0.1" y2="18"/>
		<path class="st6" d="M31.3,7.9"/>
		<path class="st6" d="M-31.1,7.9"/>
		<line class="st4" x1="31.3" y1="8.9" x2="37.3" y2="18"/>
		<line class="st4" x1="17.1" y1="15.7" x2="19.3" y2="26.5"/>
	</g>
</symbol>
<symbol  id="Forward" viewBox="-55.4 -55.4 110.9 110.9">
	<path class="st0" d="M53.9,0c0-29.8-24.2-53.9-53.9-53.9S-53.9-29.8-53.9,0S-29.8,53.9,0,53.9S53.9,29.8,53.9,0z"/>
	<path class="st1" d="M27.3-21.6v44.3c0,2.6-2.1,4.7-4.7,4.7h0c-2.6,0-4.7-2.1-4.7-4.7V0.6v-22.2c0-2.6,2.1-4.7,4.7-4.7h0
		C25.2-26.2,27.3-24.2,27.3-21.6z"/>
	<path class="st1" d="M-27.3,21.1v-45.2c0-2.6,2.7-4.1,4.8-2.8L14.7-2.4c1.9,1.3,1.9,4.2,0,5.5l-37.2,24.5c-2.1,1.4-4.8-0.2-4.8-2.8
		V21.1z"/>
</symbol>
<symbol  id="Logo" viewBox="-54 -54 107.9 107.9">
	<g id="XMLID_4_">
		<g>
			<path d="M0,54c29.8,0,54-24.2,54-54c0-29.8-24.1-54-54-54c-19.7,0-36.6,11.6-45.9,26.1c-2,3.2-3.7,6.4-5,9.8
				C-54.2-9.2-54-1.8-53.9,0C-53,22.6-33.6,54,0,54z"/>
		</g>
		<g>
		</g>
	</g>
	<g id="XMLID_3_">
		<g>
			<path class="st7" d="M52.9,1.7c0,0,0.3-11.2-5.1-22.1C40.3-16.2,33.1-4.6,25.5-4.6c-9.4,0-5.9-17.4-13.3-17.3
				C4.7-21.9,9.2,5-0.2,3.2c-9.4-1.8-9.4-43.6-18.3-43.6s-10.9,28-17.3,27.5c-1.8-0.1-5.3-5.1-7.7-9.2c-0.4-0.7-0.8-1.4-1.3-2.1
				c-0.3-0.4-0.5-0.9-0.7-1.3c0,0-5.9,10-5.1,12.2c0.1,0.4,0.3,0.8,0.4,1.2c2.8,7.6,9.1,23.2,14.1,23.6c6.6,0.5,8.6-30,17.7-30
				s9.1,45.5,18.7,47.5S5.4,1.6,12.9,1.5c7.6-0.1,4,18.9,13.7,18.9C35.6,20.4,44,3.8,52.9,1.7z"/>
		</g>
		<g>
		</g>
	</g>
</symbol>
<symbol  id="Music" viewBox="-54.4 -54.4 108.9 108.9">
	<path class="st8" d="M53.9,0c0-29.8-24.2-53.9-53.9-53.9S-53.9-29.8-53.9,0S-29.8,53.9,0,53.9S53.9,29.8,53.9,0z"/>
	<path class="st9" d="M-26.8-18.8v29.5c0,4,3.3,7.3,7.3,7.3h38.9c4,0,7.3-3.3,7.3-7.3v-29.5"/>
	<path class="st10" d="M-29.1-17.9c1.3,0,2.3-0.3,2.3-0.7s-1-0.6-2.3-0.6c-1.3,0-2.3,0.3-2.3,0.7S-30.4-17.9-29.1-17.9z"/>
	<path class="st10" d="M24.4-18.1c1.3,0,2.3-0.3,2.3-0.7c0-0.4-1-0.6-2.3-0.6c-1.3,0-2.3,0.3-2.3,0.7C22.1-18.4,23.1-18.1,24.4-18.1
		z"/>
</symbol>
<symbol  id="Music_Long" viewBox="-54.4 -54.4 108.9 108.9">
	<path class="st8" d="M53.9,0c0-29.8-24.2-53.9-53.9-53.9S-53.9-29.8-53.9,0S-29.8,53.9,0,53.9S53.9,29.8,53.9,0z"/>
	<path class="st10" d="M-29-18.8c1.3,0,2.3-0.3,2.3-0.7c0-0.4-1-0.6-2.3-0.6c-1.3,0-2.3,0.3-2.3,0.7C-31.3-19.1-30.3-18.8-29-18.8z"
		/>
	<path class="st10" d="M24.5-31.6c1.3,0,2.3-0.3,2.3-0.7s-1-0.6-2.3-0.6c-1.3,0-2.3,0.3-2.3,0.7C22.2-31.9,23.2-31.6,24.5-31.6z"/>
	<path class="st9" d="M-26.7-19.5V10c0,4,3.3,7.3,7.3,7.3h38.9c4,0,7.3-3.3,7.3-7.3v-29.5v-12.8"/>
</symbol>
<symbol  id="Play" viewBox="-55.4 -55.4 110.9 110.9">
	<path class="st0" d="M53.9,0c0-29.8-24.2-53.9-53.9-53.9S-53.9-29.8-53.9,0S-29.8,53.9,0,53.9S53.9,29.8,53.9,0z"/>
	<path class="st1" d="M-18.1,21.3v-41.9c0-4.5,4.9-7.1,8.6-4.7L23-4.5c3.4,2.2,3.4,7.3,0,9.5L-9.4,26
		C-13.1,28.4-18.1,25.8-18.1,21.3z"/>
</symbol>
<symbol  id="Playlist" viewBox="-55.4 -55.4 110.9 110.9">
	<path class="st0" d="M53.9,0c0-29.8-24.2-53.9-53.9-53.9S-53.9-29.8-53.9,0S-29.8,53.9,0,53.9S53.9,29.8,53.9,0z"/>
	<path class="st11" d="M-23.8,18c0-1.8-1.5-3.3-3.3-3.3c-1.8,0-3.3,1.5-3.3,3.3s1.5,3.3,3.3,3.3C-25.3,21.4-23.8,19.9-23.8,18z"/>
	<path class="st11" d="M-23.8,0c0-1.8-1.5-3.3-3.3-3.3c-1.8,0-3.3,1.5-3.3,3.3s1.5,3.3,3.3,3.3C-25.3,3.3-23.8,1.8-23.8,0z"/>
	<path class="st11" d="M-23.8-18.2c0-1.8-1.5-3.3-3.3-3.3c-1.8,0-3.3,1.5-3.3,3.3s1.5,3.3,3.3,3.3C-25.3-14.8-23.8-16.3-23.8-18.2z"
		/>
	<path class="st11" d="M26.4,14.7H-7.9c-1.8,0-3.3,1.5-3.3,3.3v0c0,1.8,1.5,3.3,3.3,3.3h34.3c1.8,0,3.3-1.5,3.3-3.3v0
		C29.8,16.2,28.3,14.7,26.4,14.7z"/>
	<path class="st11" d="M26.4-3.3H-7.9c-1.8,0-3.3,1.5-3.3,3.3v0c0,1.8,1.5,3.3,3.3,3.3h34.3c1.8,0,3.3-1.5,3.3-3.3v0
		C29.8-1.8,28.3-3.3,26.4-3.3z"/>
	<path class="st11" d="M26.4-21.5H-7.9c-1.8,0-3.3,1.5-3.3,3.3v0c0,1.8,1.5,3.3,3.3,3.3h34.3c1.8,0,3.3-1.5,3.3-3.3v0
		C29.8-20,28.3-21.5,26.4-21.5z"/>
</symbol>
<pattern  x="-888.4" y="-221" width="9" height="9" patternUnits="userSpaceOnUse" id="dots" viewBox="0 -9 9 9" style="overflow:visible;">
	<g>
		<polygon class="st12" points="0,-9 9,-9 9,0 0,0 		"/>
		<path d="M5.9-4.5c0,0.8-0.6,1.4-1.4,1.4S3.1-3.7,3.1-4.5s0.6-1.4,1.4-1.4S5.9-5.3,5.9-4.5z"/>
	</g>
</pattern>
<rect x="-848.2" y="-190" class="st13" width="107.9" height="107.9"/>
<rect x="-713" y="-190" class="st13" width="107.9" height="107.9"/>
<rect x="-568.8" y="-190" class="st13" width="107.9" height="107.9"/>
<rect x="-424.6" y="-190" class="st13" width="107.9" height="107.9"/>
<rect x="-848.2" y="-54.8" class="st13" width="107.9" height="107.9"/>
<rect x="-713" y="-54.8" class="st13" width="107.9" height="107.9"/>
<rect x="-568.8" y="-54.8" class="st13" width="107.9" height="107.9"/>
<rect x="-424.6" y="-54.8" class="st13" width="107.9" height="107.9"/>
<rect x="-848.2" y="80.4" class="st13" width="107.9" height="107.9"/>
<rect x="-713" y="80.4" class="st13" width="107.9" height="107.9"/>
<rect x="-568.8" y="80.4" class="st13" width="107.9" height="107.9"/>
<rect x="-424.6" y="80.4" class="st13" width="107.9" height="107.9"/>
<rect x="-848.2" y="215.5" class="st13" width="107.9" height="107.9"/>
<rect x="-713" y="215.5" class="st13" width="107.9" height="107.9"/>
<rect x="-568.8" y="215.5" class="st13" width="107.9" height="107.9"/>
<rect x="-424.6" y="215.5" class="st13" width="107.9" height="107.9"/>
<rect x="-848.2" y="350.7" class="st13" width="107.9" height="107.9"/>
<rect x="-713" y="350.7" class="st13" width="107.9" height="107.9"/>
<rect x="-568.8" y="350.7" class="st13" width="107.9" height="107.9"/>
<rect x="-424.6" y="350.7" class="st13" width="107.9" height="107.9"/>
<rect x="-859.7" y="-192.1" class="st14" width="554" height="736.3"/>
<rect x="-783.4" y="502.7" class="st15" width="249.4" height="18"/>
<rect x="-487.3" y="502.7" class="st15" width="105.8" height="18"/>
<text transform="matrix(1 0 0 1 -778.665 515.6942)" style="font-family:'MyriadPro-Regular'; font-size:10px;">Project:</text>
<text transform="matrix(1 0 0 1 -484.665 515.6942)" style="font-family:'MyriadPro-Regular'; font-size:10px;">Date:</text>
<circle class="st13" cx="-370.6" cy="134.3" r="53.9"/>
<circle class="st13" cx="-794.3" cy="269.5" r="53.9"/>
<circle class="st13" cx="-659.1" cy="269.5" r="53.9"/>
<circle class="st13" cx="-514.8" cy="269.5" r="53.9"/>
<circle class="st13" cx="-370.6" cy="269.5" r="53.9"/>
<circle class="st13" cx="-794.3" cy="404.7" r="53.9"/>
<circle class="st13" cx="-659.1" cy="404.7" r="53.9"/>
<circle class="st13" cx="-514.8" cy="404.7" r="53.9"/>
<circle class="st13" cx="-370.6" cy="404.7" r="53.9"/>
<g id="Eye_Icon">
	<g id="New_Symbol">
		<circle class="st0" cx="-794.3" cy="-136.1" r="53.9"/>
		<circle class="st0" cx="-168" cy="-144" r="30"/>
	</g>
	<g>
		<path class="st3" d="M-829.9-136.1c0.1-9.3,19.4-18,35.8-18c16.7,0,36.3,9.1,36.3,18.5c0,9.4-19.4,18.3-36,18.3
			C-810.7-117.4-830-126.7-829.9-136.1z"/>
		<circle class="st5" cx="-794.3" cy="-136.1" r="7.9"/>
		<line class="st4" x1="-829.9" y1="-154.1" x2="-824.1" y2="-145"/>
		<line class="st4" x1="-812.4" y1="-162.6" x2="-809.4" y2="-151.8"/>
		<line class="st4" x1="-794.3" y1="-166.3" x2="-794.2" y2="-154.1"/>
		<path class="st6" d="M-762.9-144"/>
		<path class="st6" d="M-825.3-144"/>
		<line class="st4" x1="-762.9" y1="-145" x2="-756.9" y2="-154.1"/>
		<line class="st4" x1="-777.2" y1="-151.8" x2="-774.9" y2="-162.6"/>
	</g>
	<g>
		<path class="st3" d="M-188.2-144c0.1-5.3,11-10.2,20.2-10.2c9.4,0,20.5,5.1,20.5,10.5c0,5.3-11,10.4-20.4,10.3
			C-177.3-133.4-188.2-138.7-188.2-144z"/>
		<circle class="st5" cx="-168" cy="-144" r="4.5"/>
		<line class="st4" x1="-188.2" y1="-154.1" x2="-184.9" y2="-149"/>
		<line class="st4" x1="-178.3" y1="-159" x2="-176.6" y2="-152.9"/>
		<line class="st4" x1="-168" y1="-161.1" x2="-168" y2="-154.1"/>
		<path class="st6" d="M-150.3-148.4"/>
		<path class="st6" d="M-185.6-148.4"/>
		<line class="st4" x1="-150.3" y1="-149" x2="-146.9" y2="-154.1"/>
		<line class="st4" x1="-158.4" y1="-152.9" x2="-157.1" y2="-159"/>
	</g>
</g>
<path class="st6" d="M-689.6-127.4"/>
<path class="st6" d="M-627.2-127.4"/>
<use xlink:href="#Closed_Eye"  width="107.9" height="107.9" x="-53.9" y="-53.9" transform="matrix(1 0 0 -1 -659.0535 -136.0953)" style="overflow:visible;"/>
<use xlink:href="#Closed_Eye"  width="107.9" height="107.9" x="-53.9" y="-53.9" transform="matrix(0.5839 0 0 -0.5839 -72.3103 -143.9903)" style="overflow:visible;"/>
<use xlink:href="#Playlist"  width="110.9" height="110.9" x="-55.4" y="-55.4" transform="matrix(1 0 0 -1 -659.0535 -0.8979)" style="overflow:visible;"/>
<use xlink:href="#Playlist"  width="110.9" height="110.9" x="-55.4" y="-55.4" transform="matrix(0.5681 0 0 -0.5681 -72.3103 -50.8448)" style="overflow:visible;"/>
<line class="st16" x1="-610.3" y1="18.5" x2="-610.1" y2="18.4"/>
<use xlink:href="#Back"  width="110.9" height="110.9" x="-55.4" y="-55.4" transform="matrix(1 0 0 -1 -794.264 134.2994)" style="overflow:visible;"/>
<use xlink:href="#Back"  width="110.9" height="110.9" x="-55.4" y="-55.4" transform="matrix(0.5681 0 0 -0.5681 -168 32)" style="overflow:visible;"/>
<use xlink:href="#Play"  width="110.9" height="110.9" x="-55.4" y="-55.4" transform="matrix(1 0 0 -1 -659.0535 134.2994)" style="overflow:visible;"/>
<use xlink:href="#Play"  width="110.9" height="110.9" x="-55.4" y="-55.4" transform="matrix(0.5681 0 0 -0.5681 -72.3103 32)" style="overflow:visible;"/>
<use xlink:href="#Forward"  width="110.9" height="110.9" x="-55.4" y="-55.4" transform="matrix(0.9739 0 0 -0.9739 -514.843 134.2994)" style="overflow:visible;"/>
<use xlink:href="#Forward"  width="110.9" height="110.9" x="-55.4" y="-55.4" transform="matrix(0.5681 0 0 -0.5681 32 32)" style="overflow:visible;"/>
<path class="st17" d="M-745.8,10.7"/>
<path class="st17" d="M-740.3-0.9"/>
<path class="st17" d="M-745.6,21.8"/>
<path class="st18" d="M-846.5,12.7"/>
<use xlink:href="#Logo"  width="107.9" height="107.9" x="-54" y="-54" transform="matrix(1 0 0 -1 -794.2791 -0.8958)" style="overflow:visible;"/>
<use xlink:href="#Logo"  width="107.9" height="107.9" x="-54" y="-54" transform="matrix(0.5838 0 0 -0.5838 -168 -50.8448)" style="overflow:visible;"/>
<path class="st16" d="M-391.9-126"/>
<use xlink:href="#Music"  width="108.9" height="108.9" x="-54.4" y="-54.4" transform="matrix(1 0 0 -1 -514.843 -136.8098)" style="overflow:visible;"/>
<use xlink:href="#Music"  width="108.9" height="108.9" x="-54.4" y="-54.4" transform="matrix(0.5785 0 0 -0.5785 32 -143.9903)" style="overflow:visible;"/>
<path class="st16" d="M-397.4,9.5"/>
<use xlink:href="#Music_Long"  width="108.9" height="108.9" x="-54.4" y="-54.4" transform="matrix(1 0 0 -1 -514.843 -0.898)" style="overflow:visible;"/>
<use xlink:href="#Music_Long"  width="108.9" height="108.9" x="-54.4" y="-54.4" transform="matrix(0.5785 0 0 -0.5785 32 -50.8448)" style="overflow:visible;"/>
</svg>
